<svg width="25" height="25" viewBox="0 0 25 25" fill="none" xmlns="http://www.w3.org/2000/svg">
<path d="M17.6666 6.42709C19.75 7.875 21.1875 10.1771 21.4791 12.8333M3.63538 12.8854C3.90621 10.2396 5.32288 7.9375 7.38538 6.47917M8.53121 21.8125C9.73954 22.4271 11.1145 22.7708 12.5625 22.7708C13.9583 22.7708 15.2708 22.4583 16.4479 21.8854M15.4583 5.125C15.4583 6.72433 14.1618 8.02084 12.5625 8.02084C10.9631 8.02084 9.66663 6.72433 9.66663 5.125C9.66663 3.52568 10.9631 2.22917 12.5625 2.22917C14.1618 2.22917 15.4583 3.52568 15.4583 5.125ZM7.92704 17.8542C7.92704 19.4535 6.63053 20.75 5.03121 20.75C3.43188 20.75 2.13538 19.4535 2.13538 17.8542C2.13538 16.2548 3.43188 14.9583 5.03121 14.9583C6.63053 14.9583 7.92704 16.2548 7.92704 17.8542ZM22.8645 17.8542C22.8645 19.4535 21.568 20.75 19.9687 20.75C18.3694 20.75 17.0729 19.4535 17.0729 17.8542C17.0729 16.2548 18.3694 14.9583 19.9687 14.9583C21.568 14.9583 22.8645 16.2548 22.8645 17.8542Z" stroke="white" stroke-width="2" stroke-linecap="round" stroke-linejoin="round"/>
</svg>
